<?xml version="1.0" encoding="UTF-8"?>
<!DOCTYPE svg PUBLIC "-//W3C//DTD SVG 1.1//EN" "http://www.w3.org/Graphics/SVG/1.1/DTD/svg11.dtd">
<svg xmlns="http://www.w3.org/2000/svg" version="1.1" width="189px" height="190px" style="shape-rendering:geometricPrecision; text-rendering:geometricPrecision; image-rendering:optimizeQuality; fill-rule:evenodd; clip-rule:evenodd" xmlns:xlink="http://www.w3.org/1999/xlink">
<g><path style="opacity:0.816" fill="#e8d995" d="M 90.5,3.5 C 98.775,2.70638 101.942,6.37305 100,14.5C 93.4542,20.0458 88.6209,18.7125 85.5,10.5C 86.4531,7.56999 88.1198,5.23665 90.5,3.5 Z"/></g>
<g><path style="opacity:1" fill="#ebcd4c" d="M 90.5,6.5 C 97.7863,6.08194 99.7863,9.08194 96.5,15.5C 88.4144,16.8529 86.4144,13.8529 90.5,6.5 Z"/></g>
<g><path style="opacity:0.604" fill="#ecd8aa" d="M 116.5,27.5 C 116.5,26.8333 116.5,26.1667 116.5,25.5C 117.5,20.5 115.5,18.5 110.5,19.5C 112.877,16.8763 115.377,16.8763 118,19.5C 118.885,22.538 118.385,25.2046 116.5,27.5 Z"/></g>
<g><path style="opacity:1" fill="#dfc788" d="M 85.5,27.5 C 88.3324,29.4065 89.1657,32.0732 88,35.5C 85.2709,37.7883 82.4376,37.9549 79.5,36C 73.08,32.6178 69.58,27.4512 69,20.5C 71.5929,17.0666 74.7596,16.5666 78.5,19C 81.4468,21.4356 83.7801,24.2689 85.5,27.5 Z"/></g>
<g><path style="opacity:1" fill="#eabb4c" d="M 82.5,25.5 C 82.7692,27.4286 82.2692,29.0953 81,30.5C 78.7492,29.5877 76.5825,28.5877 74.5,27.5C 72.0246,26.3126 71.0246,24.3126 71.5,21.5C 75.9354,20.9826 79.602,22.316 82.5,25.5 Z"/></g>
<g><path style="opacity:1" fill="#e6a543" d="M 110.5,19.5 C 115.5,18.5 117.5,20.5 116.5,25.5C 114.484,26.4859 113.151,28.1526 112.5,30.5C 109.907,31.7125 107.407,33.0458 105,34.5C 101.707,33.8621 100.707,31.8621 102,28.5C 104.965,25.6059 107.799,22.6059 110.5,19.5 Z"/></g>
<g><path style="opacity:1" fill="#dfb24f" d="M 82.5,25.5 C 83.5,26.1667 84.5,26.8333 85.5,27.5C 87.2809,33.6483 84.9476,35.815 78.5,34C 76.0771,32.4293 74.7438,30.2626 74.5,27.5C 76.5825,28.5877 78.7492,29.5877 81,30.5C 82.2692,29.0953 82.7692,27.4286 82.5,25.5 Z"/></g>
<g><path style="opacity:0.988" fill="#d7b379" d="M 110.5,19.5 C 107.799,22.6059 104.965,25.6059 102,28.5C 100.707,31.8621 101.707,33.8621 105,34.5C 107.407,33.0458 109.907,31.7125 112.5,30.5C 113.151,28.1526 114.484,26.4859 116.5,25.5C 116.5,26.1667 116.5,26.8333 116.5,27.5C 113.367,35.1503 107.867,37.817 100,35.5C 98.7241,32.8656 99.0575,30.1989 101,27.5C 103.726,24.2331 106.892,21.5665 110.5,19.5 Z"/></g>
<g><path style="opacity:0.808" fill="#d8b48d" d="M 86.5,54.5 C 86.8432,52.5168 86.1765,51.1834 84.5,50.5C 80.9581,50.1872 77.6248,50.5206 74.5,51.5C 73.3951,52.6005 72.0618,53.2671 70.5,53.5C 72.7129,49.7268 76.0462,48.0601 80.5,48.5C 82.5596,48.5716 84.5596,48.9049 86.5,49.5C 87.7879,51.2985 87.7879,52.9652 86.5,54.5 Z"/></g>
<g><path style="opacity:1" fill="#d18e68" d="M 112.5,51.5 C 109.5,51.5 106.5,51.5 103.5,51.5C 103.515,54.8791 104.515,57.8791 106.5,60.5C 104.596,60.2624 103.262,59.2624 102.5,57.5C 101.395,55.2869 101.395,53.1203 102.5,51C 106.027,50.1925 109.36,50.3592 112.5,51.5 Z"/></g>
<g><path style="opacity:0.722" fill="#dfb59a" d="M 116.5,53.5 C 115.395,52.3995 114.062,51.7329 112.5,51.5C 109.36,50.3592 106.027,50.1925 102.5,51C 101.395,53.1203 101.395,55.2869 102.5,57.5C 98.6945,54.5229 98.6945,51.6896 102.5,49C 107.072,48.1131 111.405,48.7798 115.5,51C 116.252,51.6708 116.586,52.5041 116.5,53.5 Z"/></g>
<g><path style="opacity:1" fill="#cd9675" d="M 112.5,51.5 C 114.062,51.7329 115.395,52.3995 116.5,53.5C 119.086,56.2932 119.086,59.1265 116.5,62C 113.5,62.6667 110.5,62.6667 107.5,62C 106.944,61.6174 106.611,61.1174 106.5,60.5C 115.828,62.0653 117.828,59.0653 112.5,51.5 Z"/></g>
<g><path style="opacity:1" fill="#e17b48" d="M 112.5,51.5 C 117.828,59.0653 115.828,62.0653 106.5,60.5C 104.515,57.8791 103.515,54.8791 103.5,51.5C 106.5,51.5 109.5,51.5 112.5,51.5 Z"/></g>
<g><path style="opacity:1" fill="#df9049" d="M 84.5,50.5 C 83.4861,53.507 82.4861,56.507 81.5,59.5C 78.2234,59.7839 75.0567,59.4505 72,58.5C 71.8333,57.8333 71.6667,57.1667 71.5,56.5C 72.8397,55.0104 73.8397,53.3437 74.5,51.5C 77.6248,50.5206 80.9581,50.1872 84.5,50.5 Z"/></g>
<g><path style="opacity:0.855" fill="#d3b185" d="M 70.5,53.5 C 69.1637,60.1579 71.8303,62.8246 78.5,61.5C 76.0336,62.6341 73.367,62.8007 70.5,62C 67.9136,59.1265 67.9136,56.2932 70.5,53.5 Z"/></g>
<g><path style="opacity:1" fill="#d19a67" d="M 84.5,50.5 C 86.1765,51.1834 86.8432,52.5168 86.5,54.5C 85.0618,58.2736 82.3951,60.6069 78.5,61.5C 71.8303,62.8246 69.1637,60.1579 70.5,53.5C 72.0618,53.2671 73.3951,52.6005 74.5,51.5C 73.8397,53.3437 72.8397,55.0104 71.5,56.5C 71.6667,57.1667 71.8333,57.8333 72,58.5C 75.0567,59.4505 78.2234,59.7839 81.5,59.5C 82.4861,56.507 83.4861,53.507 84.5,50.5 Z"/></g>
<g><path style="opacity:0.822" fill="#648fd2" d="M 72.5,74.5 C 69.1946,72.8823 65.8613,71.2156 62.5,69.5C 58.9572,68.031 55.2905,67.031 51.5,66.5C 51.1667,66.5 50.8333,66.5 50.5,66.5C 43.6317,64.8751 36.965,65.5417 30.5,68.5C 27.5329,70.4728 24.1996,71.6394 20.5,72C 17.2267,75.755 14.2267,79.5883 11.5,83.5C 11.5,82.1667 11.5,80.8333 11.5,79.5C 11.5,78.8333 11.8333,78.5 12.5,78.5C 14.8333,76.8333 16.8333,74.8333 18.5,72.5C 25.5475,66.3089 33.8808,63.3089 43.5,63.5C 54.7185,63.4562 64.3852,67.1228 72.5,74.5 Z"/></g>
<g><path style="opacity:0.831" fill="#d29197" d="M 96.5,66.5 C 89.9464,66.3752 87.6131,69.3752 89.5,75.5C 89.6107,76.1174 89.944,76.6174 90.5,77C 92.4727,77.4955 94.4727,77.6621 96.5,77.5C 91.217,79.9205 87.8837,78.2538 86.5,72.5C 87.7652,66.5075 91.0985,64.5075 96.5,66.5 Z"/></g>
<g><path style="opacity:1" fill="#cc507e" d="M 152.5,65.5 C 153.167,66.1667 153.833,66.8333 154.5,67.5C 154.167,67.5 153.833,67.5 153.5,67.5C 151.833,67.5 150.167,67.5 148.5,67.5C 145.372,65.769 143.039,66.6023 141.5,70C 141.833,70.3333 142.167,70.6667 142.5,71C 138.016,72.149 134.683,74.649 132.5,78.5C 131.952,77.3115 131.619,76.1448 131.5,75C 133.976,71.3248 136.643,68.6581 139.5,67C 135.361,66.1297 131.694,66.963 128.5,69.5C 127.833,69.5 127.167,69.5 126.5,69.5C 127.975,67.5905 129.975,66.4238 132.5,66C 139.158,65.5004 145.825,65.3337 152.5,65.5 Z"/></g>
<g><path style="opacity:0.267" fill="#deafb1" d="M 158.5,66.5 C 161.089,66.461 163.089,67.461 164.5,69.5C 162.181,69.0075 160.181,68.0075 158.5,66.5 Z"/></g>
<g><path style="opacity:1" fill="#3d85f5" d="M 50.5,66.5 C 47.8127,66.3359 45.146,66.5026 42.5,67C 44.1066,68.049 44.7733,69.549 44.5,71.5C 41.6146,71.1936 38.9479,71.5269 36.5,72.5C 36.1667,72.5 35.8333,72.5 35.5,72.5C 31.2339,72.1147 28.0672,74.1147 26,78.5C 25.6667,77.8333 25.3333,77.1667 25,76.5C 24.6012,76.7284 24.4346,77.0618 24.5,77.5C 22.6372,77.1541 21.8039,76.1541 22,74.5C 24.0715,73.4752 26.2381,72.6419 28.5,72C 29.305,70.8873 29.9717,69.7206 30.5,68.5C 36.965,65.5417 43.6317,64.8751 50.5,66.5 Z"/></g>
<g><path style="opacity:1" fill="#3768d0" d="M 51.5,66.5 C 55.2905,67.031 58.9572,68.031 62.5,69.5C 65.8613,71.2156 69.1946,72.8823 72.5,74.5C 73.5,74.8333 74.1667,75.5 74.5,76.5C 74.5,77.1667 74.5,77.8333 74.5,78.5C 73.609,77.8902 72.609,77.5569 71.5,77.5C 71.0269,76.0937 70.0269,75.427 68.5,75.5C 65.9048,72.8571 62.9048,72.1904 59.5,73.5C 58.4777,73.1445 57.811,72.4778 57.5,71.5C 56.0646,70.9035 54.398,70.9035 52.5,71.5C 52.9175,70.7784 53.5842,70.2784 54.5,70C 53.6619,68.8446 52.6619,67.6779 51.5,66.5 Z"/></g>
<g><path style="opacity:1" fill="#c07695" d="M 152.5,64.5 C 152.5,64.8333 152.5,65.1667 152.5,65.5C 145.825,65.3337 139.158,65.5004 132.5,66C 129.975,66.4238 127.975,67.5905 126.5,69.5C 125.167,69.5 123.833,69.5 122.5,69.5C 125.994,66.8232 129.994,64.9899 134.5,64C 140.681,63.1808 146.681,63.3475 152.5,64.5 Z"/></g>
<g><path style="opacity:1" fill="#c67a7d" d="M 152.5,64.5 C 154.898,64.2594 156.898,64.9261 158.5,66.5C 160.181,68.0075 162.181,69.0075 164.5,69.5C 167.533,71.016 170.2,73.016 172.5,75.5C 169.378,74.4388 166.378,73.1054 163.5,71.5C 162.486,70.3263 161.153,69.6596 159.5,69.5C 158.833,69.5 158.167,69.5 157.5,69.5C 157.027,68.0937 156.027,67.427 154.5,67.5C 153.833,66.8333 153.167,66.1667 152.5,65.5C 152.5,65.1667 152.5,64.8333 152.5,64.5 Z"/></g>
<g><path style="opacity:1" fill="#3778ee" d="M 50.5,66.5 C 50.8333,66.5 51.1667,66.5 51.5,66.5C 52.6619,67.6779 53.6619,68.8446 54.5,70C 53.5842,70.2784 52.9175,70.7784 52.5,71.5C 51.8826,71.3893 51.3826,71.056 51,70.5C 50.5831,71.756 49.7498,72.4226 48.5,72.5C 48.5654,72.0618 48.3988,71.7284 48,71.5C 46.103,73.0163 43.9363,73.683 41.5,73.5C 39.8828,72.962 38.2161,72.6287 36.5,72.5C 38.9479,71.5269 41.6146,71.1936 44.5,71.5C 44.7733,69.549 44.1066,68.049 42.5,67C 45.146,66.5026 47.8127,66.3359 50.5,66.5 Z"/></g>
<g><path style="opacity:1" fill="#3575f3" d="M 48.5,72.5 C 48.3259,74.861 47.9926,77.1944 47.5,79.5C 48.675,79.281 49.675,79.6143 50.5,80.5C 50.0431,81.2975 49.3764,81.6309 48.5,81.5C 45.2896,81.7508 42.2896,81.7508 39.5,81.5C 40.0065,80.1411 41.0065,79.1411 42.5,78.5C 41.9747,77.8076 41.3081,77.3076 40.5,77C 40.6191,75.8552 40.9524,74.6885 41.5,73.5C 43.9363,73.683 46.103,73.0163 48,71.5C 48.3988,71.7284 48.5654,72.0618 48.5,72.5 Z"/></g>
<g><path style="opacity:1" fill="#ca7886" d="M 97.5,66.5 C 100.761,69.3204 101.261,72.6537 99,76.5C 98.3292,77.2524 97.4959,77.5858 96.5,77.5C 94.4727,77.6621 92.4727,77.4955 90.5,77C 89.944,76.6174 89.6107,76.1174 89.5,75.5C 92.0961,76.2653 94.7628,76.5987 97.5,76.5C 97.5,73.1667 97.5,69.8333 97.5,66.5 Z"/></g>
<g><path style="opacity:1" fill="#ce4580" d="M 132.5,78.5 C 132.489,80.0174 131.823,81.1841 130.5,82C 130.833,82.3333 131.167,82.6667 131.5,83C 130.267,84.6667 128.933,86.1667 127.5,87.5C 126.833,87.5 126.167,87.5 125.5,87.5C 126.757,81.5462 127.757,75.5462 128.5,69.5C 131.694,66.963 135.361,66.1297 139.5,67C 136.643,68.6581 133.976,71.3248 131.5,75C 131.619,76.1448 131.952,77.3115 132.5,78.5 Z"/></g>
<g><path style="opacity:1" fill="#d95a6f" d="M 153.5,67.5 C 153.833,67.5 154.167,67.5 154.5,67.5C 156.027,67.427 157.027,68.0937 157.5,69.5C 154.933,70.475 152.267,71.1417 149.5,71.5C 146.812,75.1506 144.479,79.1506 142.5,83.5C 141.675,84.3857 140.675,84.719 139.5,84.5C 139.34,82.8008 139.506,81.1341 140,79.5C 144.52,74.4154 149.02,70.4154 153.5,67.5 Z"/></g>
<g><path style="opacity:1" fill="#d96169" d="M 157.5,69.5 C 158.167,69.5 158.833,69.5 159.5,69.5C 156.694,71.475 154.361,73.975 152.5,77C 153.167,77.6667 153.833,78.3333 154.5,79C 151.523,79.4813 148.857,80.6479 146.5,82.5C 145.691,84.0709 145.357,85.7376 145.5,87.5C 143.236,86.7814 140.903,86.448 138.5,86.5C 138.5,86.1667 138.5,85.8333 138.5,85.5C 139.167,85.5 139.5,85.1667 139.5,84.5C 140.675,84.719 141.675,84.3857 142.5,83.5C 144.479,79.1506 146.812,75.1506 149.5,71.5C 152.267,71.1417 154.933,70.475 157.5,69.5 Z"/></g>
<g><path style="opacity:1" fill="#2d64df" d="M 57.5,71.5 C 57.811,72.4778 58.4777,73.1445 59.5,73.5C 62.9048,72.1904 65.9048,72.8571 68.5,75.5C 66.8493,77.1238 64.8493,78.4571 62.5,79.5C 61.5481,81.0453 61.2148,82.712 61.5,84.5C 58.8333,84.5 56.1667,84.5 53.5,84.5C 53.5,84.1667 53.5,83.8333 53.5,83.5C 54.2891,83.2172 54.9558,82.7172 55.5,82C 55.3842,80.7318 55.0509,79.3985 54.5,78C 54.9496,75.4668 55.9496,73.3002 57.5,71.5 Z"/></g>
<g><path style="opacity:1" fill="#d44d5e" d="M 96.5,66.5 C 96.8333,66.5 97.1667,66.5 97.5,66.5C 97.5,69.8333 97.5,73.1667 97.5,76.5C 94.7628,76.5987 92.0961,76.2653 89.5,75.5C 87.6131,69.3752 89.9464,66.3752 96.5,66.5 Z"/></g>
<g><path style="opacity:1" fill="#d15079" d="M 148.5,67.5 C 147.167,67.5 145.833,67.5 144.5,67.5C 145.078,72.6899 142.911,76.0233 138,77.5C 136.86,80.1019 136.027,82.7686 135.5,85.5C 136.5,85.5 137.5,85.5 138.5,85.5C 138.5,85.8333 138.5,86.1667 138.5,86.5C 135.615,86.1936 132.948,86.5269 130.5,87.5C 129.5,87.5 128.5,87.5 127.5,87.5C 128.933,86.1667 130.267,84.6667 131.5,83C 131.167,82.6667 130.833,82.3333 130.5,82C 131.823,81.1841 132.489,80.0174 132.5,78.5C 134.683,74.649 138.016,72.149 142.5,71C 142.167,70.6667 141.833,70.3333 141.5,70C 143.039,66.6023 145.372,65.769 148.5,67.5 Z"/></g>
<g><path style="opacity:1" fill="#d85574" d="M 148.5,67.5 C 150.167,67.5 151.833,67.5 153.5,67.5C 149.02,70.4154 144.52,74.4154 140,79.5C 139.506,81.1341 139.34,82.8008 139.5,84.5C 139.5,85.1667 139.167,85.5 138.5,85.5C 137.5,85.5 136.5,85.5 135.5,85.5C 136.027,82.7686 136.86,80.1019 138,77.5C 142.911,76.0233 145.078,72.6899 144.5,67.5C 145.833,67.5 147.167,67.5 148.5,67.5 Z"/></g>
<g><path style="opacity:0.365" fill="#9fc9e5" d="M 18.5,72.5 C 16.8333,74.8333 14.8333,76.8333 12.5,78.5C 13.5,75.5 15.5,73.5 18.5,72.5 Z"/></g>
<g><path style="opacity:1" fill="#3e86fc" d="M 35.5,72.5 C 33.9397,74.1294 34.273,75.296 36.5,76C 35.1095,77.02 33.6095,77.8534 32,78.5C 30.9741,81.2387 29.4741,83.572 27.5,85.5C 26.3121,86.6843 25.1455,86.6843 24,85.5C 23.861,88.4453 22.6943,90.7786 20.5,92.5C 19.791,91.596 18.791,91.2627 17.5,91.5C 18.3527,89.1073 20.0194,87.774 22.5,87.5C 22.7991,85.027 23.7991,82.8603 25.5,81C 25.4301,80.2352 25.0967,79.7352 24.5,79.5C 24.5,78.8333 24.5,78.1667 24.5,77.5C 24.4346,77.0618 24.6012,76.7284 25,76.5C 25.3333,77.1667 25.6667,77.8333 26,78.5C 28.0672,74.1147 31.2339,72.1147 35.5,72.5 Z"/></g>
<g><path style="opacity:1" fill="#4890f8" d="M 30.5,68.5 C 29.9717,69.7206 29.305,70.8873 28.5,72C 26.2381,72.6419 24.0715,73.4752 22,74.5C 21.8039,76.1541 22.6372,77.1541 24.5,77.5C 24.5,78.1667 24.5,78.8333 24.5,79.5C 22.5801,80.2793 20.7468,80.6126 19,80.5C 18.3333,79.8333 17.6667,79.1667 17,78.5C 16.5065,80.1341 16.3398,81.8008 16.5,83.5C 13.7959,85.0494 11.9626,87.3827 11,90.5C 10.6667,90.1667 10.3333,89.8333 10,89.5C 9.05127,91.0931 7.88461,92.4264 6.5,93.5C 6.5,92.8333 6.5,92.1667 6.5,91.5C 7.66933,88.4887 9.336,85.822 11.5,83.5C 14.2267,79.5883 17.2267,75.755 20.5,72C 24.1996,71.6394 27.5329,70.4728 30.5,68.5 Z"/></g>
<g><path style="opacity:1" fill="#387ff6" d="M 35.5,72.5 C 35.8333,72.5 36.1667,72.5 36.5,72.5C 38.2161,72.6287 39.8828,72.962 41.5,73.5C 40.9524,74.6885 40.6191,75.8552 40.5,77C 41.3081,77.3076 41.9747,77.8076 42.5,78.5C 41.0065,79.1411 40.0065,80.1411 39.5,81.5C 38.2617,81.81 38.2617,82.31 39.5,83C 35.9627,83.8745 33.296,85.8745 31.5,89C 31.7483,90.7491 32.7483,91.5824 34.5,91.5C 33.1309,92.9683 31.9643,94.635 31,96.5C 30.6667,96.1667 30.3333,95.8333 30,95.5C 29.5045,97.4727 29.3379,99.4727 29.5,101.5C 29.1667,101.5 28.8333,101.5 28.5,101.5C 28.9867,97.1328 29.6533,92.7995 30.5,88.5C 29.0998,87.8999 28.0998,86.8999 27.5,85.5C 29.4741,83.572 30.9741,81.2387 32,78.5C 33.6095,77.8534 35.1095,77.02 36.5,76C 34.273,75.296 33.9397,74.1294 35.5,72.5 Z"/></g>
<g><path style="opacity:0.718" fill="#8191c5" d="M 74.5,76.5 C 76.5869,77.5846 77.9202,79.2512 78.5,81.5C 77.1667,80.5 75.8333,79.5 74.5,78.5C 74.5,77.8333 74.5,77.1667 74.5,76.5 Z"/></g>
<g><path style="opacity:1" fill="#c34381" d="M 122.5,69.5 C 123.833,69.5 125.167,69.5 126.5,69.5C 127.167,69.5 127.833,69.5 128.5,69.5C 127.757,75.5462 126.757,81.5462 125.5,87.5C 124.5,87.5 123.5,87.5 122.5,87.5C 125.106,83.0124 126.439,78.3457 126.5,73.5C 123.308,73.4045 120.308,74.0712 117.5,75.5C 116.078,76.925 114.411,77.925 112.5,78.5C 113.833,76.8333 115.167,75.1667 116.5,73.5C 117.802,71.1782 119.802,69.8449 122.5,69.5 Z"/></g>
<g><path style="opacity:1" fill="#cb3d83" d="M 122.5,87.5 C 122.5,88.1667 122.5,88.8333 122.5,89.5C 121.5,89.5 120.5,89.5 119.5,89.5C 119.586,87.323 120.253,85.323 121.5,83.5C 120.965,81.7295 120.131,81.3961 119,82.5C 118.647,81.3284 118.813,80.1618 119.5,79C 118.571,77.9231 117.904,76.7564 117.5,75.5C 120.308,74.0712 123.308,73.4045 126.5,73.5C 126.439,78.3457 125.106,83.0124 122.5,87.5 Z"/></g>
<g><path style="opacity:1" fill="#408bfc" d="M 24.5,79.5 C 25.0967,79.7352 25.4301,80.2352 25.5,81C 23.7991,82.8603 22.7991,85.027 22.5,87.5C 20.0194,87.774 18.3527,89.1073 17.5,91.5C 16.8333,91.8333 16.1667,92.1667 15.5,92.5C 15.8545,89.9333 16.5212,87.4333 17.5,85C 17.4301,84.2352 17.0967,83.7352 16.5,83.5C 16.3398,81.8008 16.5065,80.1341 17,78.5C 17.6667,79.1667 18.3333,79.8333 19,80.5C 20.7468,80.6126 22.5801,80.2793 24.5,79.5 Z"/></g>
<g><path style="opacity:1" fill="#d9725c" d="M 163.5,71.5 C 166.378,73.1054 169.378,74.4388 172.5,75.5C 172.5,76.1667 172.5,76.8333 172.5,77.5C 171.305,77.3225 170.138,76.9891 169,76.5C 167.518,78.1119 165.685,79.1119 163.5,79.5C 159.426,83.5604 154.759,86.8937 149.5,89.5C 148.766,88.2921 148.433,86.9587 148.5,85.5C 149.873,85.6567 151.207,85.49 152.5,85C 155.098,82.1195 158.098,79.7861 161.5,78C 160.707,76.9148 160.04,75.7481 159.5,74.5C 161.332,73.9432 162.665,72.9432 163.5,71.5 Z"/></g>
<g><path style="opacity:1" fill="#d9795c" d="M 163.5,79.5 C 164.807,80.8016 164.807,82.135 163.5,83.5C 161.677,84.4909 160.177,85.8243 159,87.5C 158.667,87.1667 158.333,86.8333 158,86.5C 156.758,87.8721 155.258,88.8721 153.5,89.5C 152.702,89.9569 152.369,90.6236 152.5,91.5C 150.833,91.5 149.167,91.5 147.5,91.5C 146.833,90.5 146.167,89.5 145.5,88.5C 146.833,88.8333 148.167,89.1667 149.5,89.5C 154.759,86.8937 159.426,83.5604 163.5,79.5 Z"/></g>
<g><path style="opacity:1" fill="#c73883" d="M 117.5,75.5 C 117.904,76.7564 118.571,77.9231 119.5,79C 118.813,80.1618 118.647,81.3284 119,82.5C 120.131,81.3961 120.965,81.7295 121.5,83.5C 120.253,85.323 119.586,87.323 119.5,89.5C 120.5,89.5 121.5,89.5 122.5,89.5C 122.5,89.8333 122.5,90.1667 122.5,90.5C 118.808,90.3243 116.808,91.9909 116.5,95.5C 115.5,95.5 114.5,95.5 113.5,95.5C 113.218,94.2223 112.551,93.2223 111.5,92.5C 114.888,91.44 116.888,89.1067 117.5,85.5C 116.224,84.3554 114.891,84.3554 113.5,85.5C 112.614,84.675 112.281,83.675 112.5,82.5C 112.5,81.1667 112.5,79.8333 112.5,78.5C 114.411,77.925 116.078,76.925 117.5,75.5 Z"/></g>
<g><path style="opacity:1" fill="#db7e56" d="M 172.5,77.5 C 173.267,78.172 173.934,79.0053 174.5,80C 171.661,83.3998 168.661,85.8998 165.5,87.5C 163.94,87.5191 162.44,87.8524 161,88.5C 159.669,89.9958 158.169,91.3291 156.5,92.5C 155.095,92.24 153.762,91.9066 152.5,91.5C 152.369,90.6236 152.702,89.9569 153.5,89.5C 155.258,88.8721 156.758,87.8721 158,86.5C 158.333,86.8333 158.667,87.1667 159,87.5C 160.177,85.8243 161.677,84.4909 163.5,83.5C 164.807,82.135 164.807,80.8016 163.5,79.5C 165.685,79.1119 167.518,78.1119 169,76.5C 170.138,76.9891 171.305,77.3225 172.5,77.5 Z"/></g>
<g><path style="opacity:1" fill="#2f6ee8" d="M 52.5,71.5 C 54.398,70.9035 56.0646,70.9035 57.5,71.5C 55.9496,73.3002 54.9496,75.4668 54.5,78C 55.0509,79.3985 55.3842,80.7318 55.5,82C 54.9558,82.7172 54.2891,83.2172 53.5,83.5C 51.4471,83.5979 49.7804,82.9313 48.5,81.5C 49.3764,81.6309 50.0431,81.2975 50.5,80.5C 49.675,79.6143 48.675,79.281 47.5,79.5C 47.9926,77.1944 48.3259,74.861 48.5,72.5C 49.7498,72.4226 50.5831,71.756 51,70.5C 51.3826,71.056 51.8826,71.3893 52.5,71.5 Z"/></g>
<g><path style="opacity:1" fill="#2959cf" d="M 68.5,75.5 C 70.0269,75.427 71.0269,76.0937 71.5,77.5C 70.2264,78.1894 70.2264,79.0228 71.5,80C 69.9751,81.0086 68.3084,81.5086 66.5,81.5C 66.6715,83.4918 66.0049,85.1585 64.5,86.5C 67.3418,87.0045 68.6751,88.6711 68.5,91.5C 67.1667,90.8333 65.8333,90.1667 64.5,89.5C 63.657,87.8267 62.3237,86.66 60.5,86C 57.854,85.5026 55.1873,85.3359 52.5,85.5C 52.5,84.8333 52.8333,84.5 53.5,84.5C 56.1667,84.5 58.8333,84.5 61.5,84.5C 61.2148,82.712 61.5481,81.0453 62.5,79.5C 64.8493,78.4571 66.8493,77.1238 68.5,75.5 Z"/></g>
<g><path style="opacity:1" fill="#c479a2" d="M 116.5,73.5 C 115.167,75.1667 113.833,76.8333 112.5,78.5C 108.019,82.949 104.519,88.2823 102,94.5C 101.182,100.349 101.348,106.015 102.5,111.5C 101.923,112.773 101.257,112.773 100.5,111.5C 97.6312,95.2516 102.964,82.5849 116.5,73.5 Z"/></g>
<g><path style="opacity:1" fill="#dc6a62" d="M 159.5,69.5 C 161.153,69.6596 162.486,70.3263 163.5,71.5C 162.665,72.9432 161.332,73.9432 159.5,74.5C 160.04,75.7481 160.707,76.9148 161.5,78C 158.098,79.7861 155.098,82.1195 152.5,85C 151.207,85.49 149.873,85.6567 148.5,85.5C 148.433,86.9587 148.766,88.2921 149.5,89.5C 148.167,89.1667 146.833,88.8333 145.5,88.5C 145.5,88.1667 145.5,87.8333 145.5,87.5C 145.357,85.7376 145.691,84.0709 146.5,82.5C 148.857,80.6479 151.523,79.4813 154.5,79C 153.833,78.3333 153.167,77.6667 152.5,77C 154.361,73.975 156.694,71.475 159.5,69.5 Z"/></g>
<g><path style="opacity:0.925" fill="#89b6e6" d="M 11.5,79.5 C 11.5,80.8333 11.5,82.1667 11.5,83.5C 9.336,85.822 7.66933,88.4887 6.5,91.5C 5.39953,93.2774 4.56619,95.2774 4,97.5C 3.50074,102.489 3.33407,107.489 3.5,112.5C 0.80567,100.24 3.47234,89.2404 11.5,79.5 Z"/></g>
<g><path style="opacity:1" fill="#3678ef" d="M 39.5,81.5 C 42.2896,81.7508 45.2896,81.7508 48.5,81.5C 49.7804,82.9313 51.4471,83.5979 53.5,83.5C 53.5,83.8333 53.5,84.1667 53.5,84.5C 52.8333,84.5 52.5,84.8333 52.5,85.5C 48.1654,85.9167 43.8321,86.4167 39.5,87C 38.2197,88.9664 36.553,90.4664 34.5,91.5C 32.7483,91.5824 31.7483,90.7491 31.5,89C 33.296,85.8745 35.9627,83.8745 39.5,83C 38.2617,82.31 38.2617,81.81 39.5,81.5 Z"/></g>
<g><path style="opacity:1" fill="#234ec6" d="M 71.5,77.5 C 72.609,77.5569 73.609,77.8902 74.5,78.5C 75.038,80.1172 75.3713,81.7839 75.5,83.5C 77.1788,83.2852 78.1788,83.9519 78.5,85.5C 77.8826,85.3893 77.3826,85.056 77,84.5C 75.1551,87.183 72.6551,88.8497 69.5,89.5C 70.1272,90.4168 70.4606,91.4168 70.5,92.5C 69.5084,92.6716 68.8417,92.3382 68.5,91.5C 68.6751,88.6711 67.3418,87.0045 64.5,86.5C 66.0049,85.1585 66.6715,83.4918 66.5,81.5C 68.3084,81.5086 69.9751,81.0086 71.5,80C 70.2264,79.0228 70.2264,78.1894 71.5,77.5 Z"/></g>
<g><path style="opacity:1" fill="#db8953" d="M 172.5,75.5 C 174.587,76.5846 175.92,78.2512 176.5,80.5C 177.117,83.3554 178.117,86.0221 179.5,88.5C 179.167,88.5 178.833,88.5 178.5,88.5C 177.342,85.8662 176.342,86.0329 175.5,89C 171.533,89.0027 167.866,89.836 164.5,91.5C 163.957,91.44 163.624,91.1067 163.5,90.5C 164.193,89.4822 164.859,88.4822 165.5,87.5C 168.661,85.8998 171.661,83.3998 174.5,80C 173.934,79.0053 173.267,78.172 172.5,77.5C 172.5,76.8333 172.5,76.1667 172.5,75.5 Z"/></g>
<g><path style="opacity:1" fill="#4489f5" d="M 16.5,83.5 C 17.0967,83.7352 17.4301,84.2352 17.5,85C 16.5212,87.4333 15.8545,89.9333 15.5,92.5C 14.3121,93.6843 13.1455,93.6843 12,92.5C 10.7485,94.0009 9.74848,95.6675 9,97.5C 7.33353,96.6598 7.16686,97.1598 8.5,99C 7.80945,100.067 7.30945,101.234 7,102.5C 6.50074,107.489 6.33407,112.489 6.5,117.5C 3.90046,109.632 3.90046,101.632 6.5,93.5C 7.88461,92.4264 9.05127,91.0931 10,89.5C 10.3333,89.8333 10.6667,90.1667 11,90.5C 11.9626,87.3827 13.7959,85.0494 16.5,83.5 Z"/></g>
<g><path style="opacity:1" fill="#3c81fc" d="M 27.5,85.5 C 28.0998,86.8999 29.0998,87.8999 30.5,88.5C 29.2719,89.3065 28.2719,90.3065 27.5,91.5C 26.8826,91.3893 26.3826,91.056 26,90.5C 24.5,92 23,93.5 21.5,95C 23.6538,96.1838 23.3205,97.3504 20.5,98.5C 18.8773,97.5092 17.8773,98.1759 17.5,100.5C 16.0921,101.243 14.7588,102.077 13.5,103C 14.6223,104.613 14.1223,105.78 12,106.5C 11.51,107.793 11.3433,109.127 11.5,110.5C 10.8333,110.5 10.5,110.833 10.5,111.5C 7.78617,108.976 7.1195,105.976 8.5,102.5C 12.9653,102.019 15.9653,99.3523 17.5,94.5C 18.5178,93.8075 19.5178,93.1408 20.5,92.5C 22.6943,90.7786 23.861,88.4453 24,85.5C 25.1455,86.6843 26.3121,86.6843 27.5,85.5 Z"/></g>
<g><path style="opacity:1" fill="#c73485" d="M 112.5,82.5 C 112.281,83.675 112.614,84.675 113.5,85.5C 114.891,84.3554 116.224,84.3554 117.5,85.5C 116.888,89.1067 114.888,91.44 111.5,92.5C 110.5,92.5 109.5,92.5 108.5,92.5C 108.768,90.901 108.434,89.5676 107.5,88.5C 108.175,85.651 109.842,83.651 112.5,82.5 Z"/></g>
<g><path style="opacity:0.996" fill="#c98286" d="M 130.5,87.5 C 132.948,86.5269 135.615,86.1936 138.5,86.5C 140.903,86.448 143.236,86.7814 145.5,87.5C 145.5,87.8333 145.5,88.1667 145.5,88.5C 146.167,89.5 146.833,90.5 147.5,91.5C 142.224,88.7651 136.557,87.4317 130.5,87.5 Z"/></g>
<g><path style="opacity:1" fill="#cb7fa0" d="M 122.5,87.5 C 123.5,87.5 124.5,87.5 125.5,87.5C 126.167,87.5 126.833,87.5 127.5,87.5C 128.5,87.5 129.5,87.5 130.5,87.5C 127.631,88.2679 124.964,89.6012 122.5,91.5C 122.5,91.1667 122.5,90.8333 122.5,90.5C 122.5,90.1667 122.5,89.8333 122.5,89.5C 122.5,88.8333 122.5,88.1667 122.5,87.5 Z"/></g>
<g><path style="opacity:0.906" fill="#d7ac84" d="M 176.5,80.5 C 180.4,84.3005 182.734,88.9672 183.5,94.5C 183.5,94.8333 183.5,95.1667 183.5,95.5C 183.167,95.5 182.833,95.5 182.5,95.5C 182.293,92.7594 181.293,90.4261 179.5,88.5C 178.117,86.0221 177.117,83.3554 176.5,80.5 Z"/></g>
<g><path style="opacity:1" fill="#b43079" d="M 112.5,78.5 C 112.5,79.8333 112.5,81.1667 112.5,82.5C 109.842,83.651 108.175,85.651 107.5,88.5C 106.588,90.5952 105.421,92.5952 104,94.5C 103.333,97.5 103.333,100.5 104,103.5C 104.671,104.252 105.504,104.586 106.5,104.5C 104.718,106.606 103.385,108.939 102.5,111.5C 101.348,106.015 101.182,100.349 102,94.5C 104.519,88.2823 108.019,82.949 112.5,78.5 Z"/></g>
<g><path style="opacity:1" fill="#1e44c4" d="M 78.5,85.5 C 79.1667,85.5 79.5,85.8333 79.5,86.5C 79.5,87.5 79.5,88.5 79.5,89.5C 78.5,89.5 77.5,89.5 76.5,89.5C 76.2606,91.4672 76.5939,93.3005 77.5,95C 76.9221,96.417 75.9221,97.2504 74.5,97.5C 73.1667,95.8333 71.8333,94.1667 70.5,92.5C 70.4606,91.4168 70.1272,90.4168 69.5,89.5C 72.6551,88.8497 75.1551,87.183 77,84.5C 77.3826,85.056 77.8826,85.3893 78.5,85.5 Z"/></g>
<g><path style="opacity:1" fill="#d9875a" d="M 165.5,87.5 C 164.859,88.4822 164.193,89.4822 163.5,90.5C 163.624,91.1067 163.957,91.44 164.5,91.5C 161.952,93.029 159.452,94.6956 157,96.5C 156.162,95.001 155.329,94.6676 154.5,95.5C 153.833,95.5 153.167,95.5 152.5,95.5C 152.158,94.6618 151.492,94.3284 150.5,94.5C 149.167,93.8333 148.167,92.8333 147.5,91.5C 149.167,91.5 150.833,91.5 152.5,91.5C 153.762,91.9066 155.095,92.24 156.5,92.5C 158.169,91.3291 159.669,89.9958 161,88.5C 162.44,87.8524 163.94,87.5191 165.5,87.5 Z"/></g>
<g><path style="opacity:1" fill="#3a7ef7" d="M 27.5,91.5 C 27.4415,94.7313 25.9415,97.0646 23,98.5C 22.4427,100.615 21.6094,102.615 20.5,104.5C 17.362,106.424 14.362,108.424 11.5,110.5C 11.3433,109.127 11.51,107.793 12,106.5C 14.1223,105.78 14.6223,104.613 13.5,103C 14.7588,102.077 16.0921,101.243 17.5,100.5C 17.8773,98.1759 18.8773,97.5092 20.5,98.5C 23.3205,97.3504 23.6538,96.1838 21.5,95C 23,93.5 24.5,92 26,90.5C 26.3826,91.056 26.8826,91.3893 27.5,91.5 Z"/></g>
<g><path style="opacity:1" fill="#4083fa" d="M 17.5,91.5 C 18.791,91.2627 19.791,91.596 20.5,92.5C 19.5178,93.1408 18.5178,93.8075 17.5,94.5C 15.9653,99.3523 12.9653,102.019 8.5,102.5C 7.1195,105.976 7.78617,108.976 10.5,111.5C 9.76589,112.708 9.43255,114.041 9.5,115.5C 8.87605,115.917 8.54272,116.584 8.5,117.5C 9.17761,119.516 9.84428,121.516 10.5,123.5C 8.26205,122.147 6.92872,120.147 6.5,117.5C 6.33407,112.489 6.50074,107.489 7,102.5C 7.30945,101.234 7.80945,100.067 8.5,99C 7.16686,97.1598 7.33353,96.6598 9,97.5C 9.74848,95.6675 10.7485,94.0009 12,92.5C 13.1455,93.6843 14.3121,93.6843 15.5,92.5C 16.1667,92.1667 16.8333,91.8333 17.5,91.5 Z"/></g>
<g><path style="opacity:1" fill="#de8f4f" d="M 178.5,88.5 C 178.421,89.9305 178.754,91.2638 179.5,92.5C 177.955,93.4519 176.288,93.7852 174.5,93.5C 172.875,92.6749 171.208,93.0082 169.5,94.5C 168.846,96.1151 168.346,97.7818 168,99.5C 166.594,98.3318 165.428,98.6652 164.5,100.5C 162.633,97.7709 161.633,98.1043 161.5,101.5C 160.167,101.5 158.833,101.5 157.5,101.5C 156.13,99.7496 155.13,97.7496 154.5,95.5C 155.329,94.6676 156.162,95.001 157,96.5C 159.452,94.6956 161.952,93.029 164.5,91.5C 167.866,89.836 171.533,89.0027 175.5,89C 176.342,86.0329 177.342,85.8662 178.5,88.5 Z"/></g>
<g><path style="opacity:1" fill="#c22d7e" d="M 107.5,88.5 C 108.434,89.5676 108.768,90.901 108.5,92.5C 109.5,92.5 110.5,92.5 111.5,92.5C 112.551,93.2223 113.218,94.2223 113.5,95.5C 112.539,97.2646 112.205,99.2646 112.5,101.5C 110.284,102.044 108.284,103.044 106.5,104.5C 105.504,104.586 104.671,104.252 104,103.5C 103.333,100.5 103.333,97.5 104,94.5C 105.421,92.5952 106.588,90.5952 107.5,88.5 Z"/></g>
<g><path style="opacity:1" fill="#1e3ab4" d="M 79.5,86.5 C 82.6597,89.3753 84.493,93.042 85,97.5C 85.4983,100.817 85.665,104.15 85.5,107.5C 83.1791,106.523 80.8458,105.523 78.5,104.5C 78.6495,103.448 78.4828,102.448 78,101.5C 76.2802,100.616 75.1135,99.2825 74.5,97.5C 75.9221,97.2504 76.9221,96.417 77.5,95C 76.5939,93.3005 76.2606,91.4672 76.5,89.5C 77.5,89.5 78.5,89.5 79.5,89.5C 79.5,88.5 79.5,87.5 79.5,86.5 Z"/></g>
<g><path style="opacity:1" fill="#e0994d" d="M 178.5,88.5 C 178.833,88.5 179.167,88.5 179.5,88.5C 181.293,90.4261 182.293,92.7594 182.5,95.5C 182.552,97.9029 182.219,100.236 181.5,102.5C 180.5,101.167 179.5,101.167 178.5,102.5C 178.657,101.127 178.49,99.7932 178,98.5C 176.416,99.8613 174.582,100.528 172.5,100.5C 172.5,99.5 172.5,98.5 172.5,97.5C 173.376,97.6309 174.043,97.2975 174.5,96.5C 173.209,95.4728 173.209,94.4728 174.5,93.5C 176.288,93.7852 177.955,93.4519 179.5,92.5C 178.754,91.2638 178.421,89.9305 178.5,88.5 Z"/></g>
<g><path style="opacity:0.98" fill="#6a8cd8" d="M 43.5,89.5 C 38.3103,93.0171 34.6436,97.6838 32.5,103.5C 32.0786,97.5077 34.412,93.0077 39.5,90C 40.7932,89.51 42.1266,89.3433 43.5,89.5 Z"/></g>
<g><path style="opacity:0.957" fill="#4b5fa8" d="M 62.5,89.5 C 63.1667,89.5 63.8333,89.5 64.5,89.5C 65.8333,90.1667 67.1667,90.8333 68.5,91.5C 68.8417,92.3382 69.5084,92.6716 70.5,92.5C 71.8333,94.1667 73.1667,95.8333 74.5,97.5C 75.1135,99.2825 76.2802,100.616 78,101.5C 78.4828,102.448 78.6495,103.448 78.5,104.5C 73.1405,99.4721 67.8071,94.4721 62.5,89.5 Z"/></g>
<g><path style="opacity:1" fill="#3779f4" d="M 30.5,88.5 C 29.6533,92.7995 28.9867,97.1328 28.5,101.5C 29.0964,103.965 28.4297,106.298 26.5,108.5C 23.4215,109.352 20.9215,111.018 19,113.5C 18.6667,113.167 18.3333,112.833 18,112.5C 16.8864,114.483 15.3864,116.15 13.5,117.5C 13.0894,116.738 12.9227,115.738 13,114.5C 11.8552,114.619 10.6885,114.952 9.5,115.5C 9.43255,114.041 9.76589,112.708 10.5,111.5C 10.5,110.833 10.8333,110.5 11.5,110.5C 14.362,108.424 17.362,106.424 20.5,104.5C 21.6094,102.615 22.4427,100.615 23,98.5C 25.9415,97.0646 27.4415,94.7313 27.5,91.5C 28.2719,90.3065 29.2719,89.3065 30.5,88.5 Z"/></g>
<g><path style="opacity:1" fill="#b95b8d" d="M 122.5,90.5 C 122.5,90.8333 122.5,91.1667 122.5,91.5C 118.806,94.5271 115.473,97.8604 112.5,101.5C 112.205,99.2646 112.539,97.2646 113.5,95.5C 114.5,95.5 115.5,95.5 116.5,95.5C 116.808,91.9909 118.808,90.3243 122.5,90.5 Z"/></g>
<g><path style="opacity:1" fill="#e1984d" d="M 174.5,93.5 C 173.209,94.4728 173.209,95.4728 174.5,96.5C 174.043,97.2975 173.376,97.6309 172.5,97.5C 172.631,96.6236 172.298,95.9569 171.5,95.5C 171.081,99.754 168.914,102.754 165,104.5C 164.047,102.408 162.714,102.075 161,103.5C 159.748,106.014 159.248,108.68 159.5,111.5C 158.833,111.5 158.167,111.5 157.5,111.5C 157.5,108.167 157.5,104.833 157.5,101.5C 158.833,101.5 160.167,101.5 161.5,101.5C 161.633,98.1043 162.633,97.7709 164.5,100.5C 165.428,98.6652 166.594,98.3318 168,99.5C 168.346,97.7818 168.846,96.1151 169.5,94.5C 171.208,93.0082 172.875,92.6749 174.5,93.5 Z"/></g>
<g><path style="opacity:1" fill="#4678db" d="M 52.5,85.5 C 55.1873,85.3359 57.854,85.5026 60.5,86C 62.3237,86.66 63.657,87.8267 64.5,89.5C 63.8333,89.5 63.1667,89.5 62.5,89.5C 60.0891,87.1403 57.0891,86.1403 53.5,86.5C 50.9767,86.6689 48.4767,87.0023 46,87.5C 44.6244,87.6842 43.7911,88.3509 43.5,89.5C 42.1266,89.3433 40.7932,89.51 39.5,90C 34.412,93.0077 32.0786,97.5077 32.5,103.5C 32.5,107.167 32.5,110.833 32.5,114.5C 32.5,115.833 32.5,117.167 32.5,118.5C 32.1667,118.5 31.8333,118.5 31.5,118.5C 29.7897,112.989 29.123,107.323 29.5,101.5C 29.3379,99.4727 29.5045,97.4727 30,95.5C 30.3333,95.8333 30.6667,96.1667 31,96.5C 31.9643,94.635 33.1309,92.9683 34.5,91.5C 36.553,90.4664 38.2197,88.9664 39.5,87C 43.8321,86.4167 48.1654,85.9167 52.5,85.5 Z"/></g>
<g><path style="opacity:0.412" fill="#6585c4" d="M 62.5,89.5 C 56.1828,86.9128 49.8495,86.9128 43.5,89.5C 43.7911,88.3509 44.6244,87.6842 46,87.5C 48.4767,87.0023 50.9767,86.6689 53.5,86.5C 57.0891,86.1403 60.0891,87.1403 62.5,89.5 Z"/></g>
<g><path style="opacity:1" fill="#e39f49" d="M 172.5,97.5 C 172.5,98.5 172.5,99.5 172.5,100.5C 174.582,100.528 176.416,99.8613 178,98.5C 178.49,99.7932 178.657,101.127 178.5,102.5C 176.563,103.59 174.73,104.924 173,106.5C 172,105.833 171,105.167 170,104.5C 169.181,108.236 167.515,111.569 165,114.5C 164.333,112.5 163.667,110.5 163,108.5C 161.959,109.471 161.126,110.471 160.5,111.5C 160.167,111.5 159.833,111.5 159.5,111.5C 159.248,108.68 159.748,106.014 161,103.5C 162.714,102.075 164.047,102.408 165,104.5C 168.914,102.754 171.081,99.754 171.5,95.5C 172.298,95.9569 172.631,96.6236 172.5,97.5 Z"/></g>
<g><path style="opacity:1" fill="#9a9d80" d="M 59.5,106.5 C 59.4142,107.496 59.7476,108.329 60.5,109C 59.1667,109.667 57.8333,110.333 56.5,111C 56.5,112 56.5,113 56.5,114C 54.2449,113.751 51.9115,112.918 49.5,111.5C 50.0431,111.44 50.3764,111.107 50.5,110.5C 49.0541,108.382 48.3874,106.049 48.5,103.5C 51.8984,103.18 55.2317,103.513 58.5,104.5C 58.8627,105.183 59.1961,105.85 59.5,106.5 Z"/></g>
<g><path style="opacity:0.843" fill="#4e589e" d="M 74.5,78.5 C 75.8333,79.5 77.1667,80.5 78.5,81.5C 81.5211,84.3664 84.0211,87.6997 86,91.5C 87.3288,98.092 87.8288,104.759 87.5,111.5C 83.6676,110.345 80.6676,108.012 78.5,104.5C 80.8458,105.523 83.1791,106.523 85.5,107.5C 85.665,104.15 85.4983,100.817 85,97.5C 84.493,93.042 82.6597,89.3753 79.5,86.5C 79.5,85.8333 79.1667,85.5 78.5,85.5C 78.1788,83.9519 77.1788,83.2852 75.5,83.5C 75.3713,81.7839 75.038,80.1172 74.5,78.5 Z"/></g>
<g><path style="opacity:1" fill="#e5a546" d="M 181.5,102.5 C 181.5,103.5 181.5,104.5 181.5,105.5C 180.732,106.263 180.232,107.263 180,108.5C 179.667,107.833 179.333,107.167 179,106.5C 176.816,108.288 174.649,109.954 172.5,111.5C 171.472,111.074 170.139,111.074 168.5,111.5C 168.216,114.254 167.549,116.92 166.5,119.5C 165.264,118.754 163.93,118.421 162.5,118.5C 162.014,116.193 162.014,114.027 162.5,112C 161.906,111.536 161.239,111.369 160.5,111.5C 161.126,110.471 161.959,109.471 163,108.5C 163.667,110.5 164.333,112.5 165,114.5C 167.515,111.569 169.181,108.236 170,104.5C 171,105.167 172,105.833 173,106.5C 174.73,104.924 176.563,103.59 178.5,102.5C 179.5,101.167 180.5,101.167 181.5,102.5 Z"/></g>
<g><path style="opacity:0.082" fill="#f4d9ad" d="M 150.5,94.5 C 151.492,94.3284 152.158,94.6618 152.5,95.5C 155.597,101.992 156.264,108.658 154.5,115.5C 155.472,107.972 154.139,100.972 150.5,94.5 Z"/></g>
<g><path style="opacity:0.745" fill="#ad5787" d="M 112.5,101.5 C 109.5,105.167 106.167,108.5 102.5,111.5C 103.385,108.939 104.718,106.606 106.5,104.5C 108.284,103.044 110.284,102.044 112.5,101.5 Z"/></g>
<g><path style="opacity:1" fill="#a3a593" d="M 62.5,106.5 C 61.5,107.833 60.5,107.833 59.5,106.5C 59.1961,105.85 58.8627,105.183 58.5,104.5C 55.2317,103.513 51.8984,103.18 48.5,103.5C 48.3874,106.049 49.0541,108.382 50.5,110.5C 50.3764,111.107 50.0431,111.44 49.5,111.5C 48.596,112.209 48.2627,113.209 48.5,114.5C 44.5223,110.45 44.5223,106.284 48.5,102C 54.5473,99.1897 59.2139,100.69 62.5,106.5 Z"/></g>
<g><path style="opacity:1" fill="#3472ed" d="M 28.5,101.5 C 28.8333,101.5 29.1667,101.5 29.5,101.5C 29.123,107.323 29.7897,112.989 31.5,118.5C 30.0337,117.653 29.2004,116.32 29,114.5C 28.6667,116.167 28.3333,117.833 28,119.5C 26.3333,119.167 24.6667,118.833 23,118.5C 20.5164,119.886 18.183,121.553 16,123.5C 14.7025,122.216 13.5358,122.383 12.5,124C 13.3841,125.72 14.7175,126.886 16.5,127.5C 16.2872,130.451 16.9539,133.118 18.5,135.5C 17.8333,135.5 17.1667,135.5 16.5,135.5C 15.8947,131.946 14.0613,129.279 11,127.5C 10.51,126.207 10.3433,124.873 10.5,123.5C 9.84428,121.516 9.17761,119.516 8.5,117.5C 8.54272,116.584 8.87605,115.917 9.5,115.5C 10.6885,114.952 11.8552,114.619 13,114.5C 12.9227,115.738 13.0894,116.738 13.5,117.5C 15.3864,116.15 16.8864,114.483 18,112.5C 18.3333,112.833 18.6667,113.167 19,113.5C 20.9215,111.018 23.4215,109.352 26.5,108.5C 28.4297,106.298 29.0964,103.965 28.5,101.5 Z"/></g>
<g><path style="opacity:1" fill="#939581" d="M 59.5,106.5 C 60.5,107.833 61.5,107.833 62.5,106.5C 64.5,107.833 66.1667,109.5 67.5,111.5C 64.6691,115.221 61.0025,116.554 56.5,115.5C 56.1667,116 55.8333,116.5 55.5,117C 57.047,118.376 58.3803,119.876 59.5,121.5C 58.8902,122.391 58.5569,123.391 58.5,124.5C 54.8333,121.5 51.5,118.167 48.5,114.5C 48.2627,113.209 48.596,112.209 49.5,111.5C 51.9115,112.918 54.2449,113.751 56.5,114C 56.5,113 56.5,112 56.5,111C 57.8333,110.333 59.1667,109.667 60.5,109C 59.7476,108.329 59.4142,107.496 59.5,106.5 Z"/></g>
<g><path style="opacity:1" fill="#dfb160" d="M 182.5,95.5 C 182.833,95.5 183.167,95.5 183.5,95.5C 183.61,103.525 183.276,111.525 182.5,119.5C 181.609,120.261 180.942,121.261 180.5,122.5C 179.675,123.386 178.675,123.719 177.5,123.5C 177.5,122.833 177.5,122.167 177.5,121.5C 181.05,116.889 182.383,111.556 181.5,105.5C 181.5,104.5 181.5,103.5 181.5,102.5C 182.219,100.236 182.552,97.9029 182.5,95.5 Z"/></g>
<g><path style="opacity:0.396" fill="#f2dfad" d="M 183.5,94.5 C 186.249,102.937 185.916,111.271 182.5,119.5C 183.276,111.525 183.61,103.525 183.5,95.5C 183.5,95.1667 183.5,94.8333 183.5,94.5 Z"/></g>
<g><path style="opacity:1" fill="#7d8c72" d="M 128.5,106.5 C 130.291,107.483 131.791,108.816 133,110.5C 135.243,107.886 137.41,107.886 139.5,110.5C 139.5,111.833 139.5,113.167 139.5,114.5C 138.209,114.263 137.209,114.596 136.5,115.5C 135.015,114.065 133.682,114.232 132.5,116C 130.167,116.667 127.833,116.667 125.5,116C 123.422,114.73 123.088,113.23 124.5,111.5C 126.587,110.415 127.92,108.749 128.5,106.5 Z"/></g>
<g><path style="opacity:1" fill="#798977" d="M 123.5,108.5 C 124.404,109.209 124.737,110.209 124.5,111.5C 123.088,113.23 123.422,114.73 125.5,116C 127.833,116.667 130.167,116.667 132.5,116C 133.682,114.232 135.015,114.065 136.5,115.5C 136.938,115.435 137.272,115.601 137.5,116C 135.881,116.236 134.881,117.069 134.5,118.5C 131.833,119.833 129.167,119.833 126.5,118.5C 125.279,117.972 124.113,117.305 123,116.5C 122.667,117.833 122.333,119.167 122,120.5C 120.817,121.731 119.651,121.731 118.5,120.5C 119.609,119.035 119.109,118.035 117,117.5C 115.67,118.582 114.17,119.249 112.5,119.5C 115.533,115.16 119.2,111.493 123.5,108.5 Z"/></g>
<g><path style="opacity:1" fill="#e8a946" d="M 172.5,111.5 C 172.575,114.206 172.908,116.873 173.5,119.5C 173.141,121.485 172.308,122.151 171,121.5C 168.05,122.189 165.217,123.189 162.5,124.5C 162.657,123.127 162.49,121.793 162,120.5C 160.234,122.596 158.901,124.929 158,127.5C 157.439,126.978 156.772,126.645 156,126.5C 153.846,127.274 151.679,127.941 149.5,128.5C 152.618,126.276 155.284,123.61 157.5,120.5C 158.932,117.673 159.599,114.673 159.5,111.5C 159.833,111.5 160.167,111.5 160.5,111.5C 161.239,111.369 161.906,111.536 162.5,112C 162.014,114.027 162.014,116.193 162.5,118.5C 163.93,118.421 165.264,118.754 166.5,119.5C 167.549,116.92 168.216,114.254 168.5,111.5C 170.139,111.074 171.472,111.074 172.5,111.5 Z"/></g>
<g><path style="opacity:1" fill="#8e9288" d="M 67.5,111.5 C 73.8875,117.221 79.8875,123.221 85.5,129.5C 84.2502,129.423 83.4169,128.756 83,127.5C 80.4478,128.487 78.9478,127.487 78.5,124.5C 78.631,123.761 78.4643,123.094 78,122.5C 77.2303,123.598 76.397,123.598 75.5,122.5C 74.3886,121.34 73.3886,120.007 72.5,118.5C 71.3366,117.944 70.3366,117.611 69.5,117.5C 68.2702,115.703 67.6036,113.703 67.5,111.5 Z"/></g>
<g><path style="opacity:1" fill="#898c79" d="M 67.5,111.5 C 67.6036,113.703 68.2702,115.703 69.5,117.5C 68.6906,118.469 67.6906,119.302 66.5,120C 66.8333,120.333 67.1667,120.667 67.5,121C 64.6741,121.029 62.0074,121.195 59.5,121.5C 58.3803,119.876 57.047,118.376 55.5,117C 55.8333,116.5 56.1667,116 56.5,115.5C 61.0025,116.554 64.6691,115.221 67.5,111.5 Z"/></g>
<g><path style="opacity:1" fill="#e9ad47" d="M 181.5,105.5 C 182.383,111.556 181.05,116.889 177.5,121.5C 176.938,117.87 175.605,117.203 173.5,119.5C 172.908,116.873 172.575,114.206 172.5,111.5C 174.649,109.954 176.816,108.288 179,106.5C 179.333,107.167 179.667,107.833 180,108.5C 180.232,107.263 180.732,106.263 181.5,105.5 Z"/></g>
<g><path style="opacity:0.796" fill="#82a0d7" d="M 32.5,114.5 C 33.4918,116.456 34.4918,118.456 35.5,120.5C 34.5,119.833 33.5,119.167 32.5,118.5C 32.5,117.167 32.5,115.833 32.5,114.5 Z"/></g>
<g><path style="opacity:0.855" fill="#9ba190" d="M 134.5,119.5 C 134.5,119.167 134.5,118.833 134.5,118.5C 134.881,117.069 135.881,116.236 137.5,116C 137.272,115.601 136.938,115.435 136.5,115.5C 137.209,114.596 138.209,114.263 139.5,114.5C 139.5,113.167 139.5,111.833 139.5,110.5C 141.952,108.057 141.952,105.557 139.5,103C 135.232,102.477 131.565,103.643 128.5,106.5C 127.92,108.749 126.587,110.415 124.5,111.5C 124.737,110.209 124.404,109.209 123.5,108.5C 127.2,101.32 132.867,99.1537 140.5,102C 144.709,109.782 142.709,115.615 134.5,119.5 Z"/></g>
<g><path style="opacity:1" fill="#8b9376" d="M 139.5,110.5 C 137.41,107.886 135.243,107.886 133,110.5C 131.791,108.816 130.291,107.483 128.5,106.5C 131.565,103.643 135.232,102.477 139.5,103C 141.952,105.557 141.952,108.057 139.5,110.5 Z"/></g>
<g><path style="opacity:1" fill="#316dea" d="M 31.5,118.5 C 31.8333,118.5 32.1667,118.5 32.5,118.5C 32.5569,119.609 32.8902,120.609 33.5,121.5C 31.9557,121.703 30.6223,122.37 29.5,123.5C 27.7859,122.391 27.1192,123.058 27.5,125.5C 25.712,125.215 24.0453,125.548 22.5,126.5C 23.8793,127.863 23.7126,128.863 22,129.5C 20.4029,128.115 18.5695,127.449 16.5,127.5C 14.7175,126.886 13.3841,125.72 12.5,124C 13.5358,122.383 14.7025,122.216 16,123.5C 18.183,121.553 20.5164,119.886 23,118.5C 24.6667,118.833 26.3333,119.167 28,119.5C 28.3333,117.833 28.6667,116.167 29,114.5C 29.2004,116.32 30.0337,117.653 31.5,118.5 Z"/></g>
<g><path style="opacity:1" fill="#78857a" d="M 126.5,118.5 C 129.167,119.833 131.833,119.833 134.5,118.5C 134.5,118.833 134.5,119.167 134.5,119.5C 131.5,123.167 128.167,126.5 124.5,129.5C 124.33,128.178 124.663,127.011 125.5,126C 124.906,125.536 124.239,125.369 123.5,125.5C 124.791,124.527 124.791,123.527 123.5,122.5C 125.288,121.717 126.288,120.384 126.5,118.5 Z"/></g>
<g><path style="opacity:0.941" fill="#618ace" d="M 6.5,91.5 C 6.5,92.1667 6.5,92.8333 6.5,93.5C 3.90046,101.632 3.90046,109.632 6.5,117.5C 6.92872,120.147 8.26205,122.147 10.5,123.5C 10.3433,124.873 10.51,126.207 11,127.5C 14.0613,129.279 15.8947,131.946 16.5,135.5C 9.21353,129.536 4.88019,121.87 3.5,112.5C 3.33407,107.489 3.50074,102.489 4,97.5C 4.56619,95.2774 5.39953,93.2774 6.5,91.5 Z"/></g>
<g><path style="opacity:1" fill="#eeb249" d="M 177.5,121.5 C 177.5,122.167 177.5,122.833 177.5,123.5C 176.903,128.379 174.57,132.046 170.5,134.5C 167.215,134.269 164.715,135.603 163,138.5C 160.713,137.456 158.547,136.456 156.5,135.5C 157.692,133.122 159.359,131.122 161.5,129.5C 162.452,127.955 162.785,126.288 162.5,124.5C 165.217,123.189 168.05,122.189 171,121.5C 172.308,122.151 173.141,121.485 173.5,119.5C 175.605,117.203 176.938,117.87 177.5,121.5 Z"/></g>
<g><path style="opacity:1" fill="#d4ac73" d="M 152.5,95.5 C 153.167,95.5 153.833,95.5 154.5,95.5C 155.13,97.7496 156.13,99.7496 157.5,101.5C 157.5,104.833 157.5,108.167 157.5,111.5C 156.84,115.313 155.674,118.979 154,122.5C 150.937,125.076 147.771,127.409 144.5,129.5C 149.027,125.647 152.36,120.98 154.5,115.5C 156.264,108.658 155.597,101.992 152.5,95.5 Z"/></g>
<g><path style="opacity:0.616" fill="#879ed8" d="M 35.5,120.5 C 37.5,121.833 39.1667,123.5 40.5,125.5C 37.5,125.167 35.8333,123.5 35.5,120.5 Z"/></g>
<g><path style="opacity:1" fill="#84877a" d="M 69.5,117.5 C 70.3366,117.611 71.3366,117.944 72.5,118.5C 73.3886,120.007 74.3886,121.34 75.5,122.5C 71.6176,124.209 67.6176,126.043 63.5,128C 64.2524,128.671 64.5858,129.504 64.5,130.5C 62.1667,128.833 60.1667,126.833 58.5,124.5C 58.5569,123.391 58.8902,122.391 59.5,121.5C 62.0074,121.195 64.6741,121.029 67.5,121C 67.1667,120.667 66.8333,120.333 66.5,120C 67.6906,119.302 68.6906,118.469 69.5,117.5 Z"/></g>
<g><path style="opacity:1" fill="#6e7f73" d="M 126.5,118.5 C 126.288,120.384 125.288,121.717 123.5,122.5C 124.791,123.527 124.791,124.527 123.5,125.5C 120.461,124.664 117.461,124.998 114.5,126.5C 113.2,125.892 111.867,125.225 110.5,124.5C 109.151,124.846 107.817,125.179 106.5,125.5C 108.167,123.167 110.167,121.167 112.5,119.5C 114.17,119.249 115.67,118.582 117,117.5C 119.109,118.035 119.609,119.035 118.5,120.5C 119.651,121.731 120.817,121.731 122,120.5C 122.333,119.167 122.667,117.833 123,116.5C 124.113,117.305 125.279,117.972 126.5,118.5 Z"/></g>
<g><path style="opacity:1" fill="#6d7d73" d="M 123.5,125.5 C 124.239,125.369 124.906,125.536 125.5,126C 124.663,127.011 124.33,128.178 124.5,129.5C 121.5,133.167 118.167,136.5 114.5,139.5C 114.586,138.504 114.252,137.671 113.5,137C 114.823,136.184 115.489,135.017 115.5,133.5C 116.117,131.771 117.117,130.271 118.5,129C 116.68,128.8 115.347,127.966 114.5,126.5C 117.461,124.998 120.461,124.664 123.5,125.5 Z"/></g>
<g><path style="opacity:1" fill="#65796e" d="M 114.5,126.5 C 115.347,127.966 116.68,128.8 118.5,129C 117.117,130.271 116.117,131.771 115.5,133.5C 113.143,133.663 110.81,133.497 108.5,133C 110.044,132.71 111.377,132.044 112.5,131C 109.278,130.801 106.278,129.968 103.5,128.5C 104.167,127.167 105.167,126.167 106.5,125.5C 107.817,125.179 109.151,124.846 110.5,124.5C 111.867,125.225 113.2,125.892 114.5,126.5 Z"/></g>
<g><path style="opacity:1" fill="#3065e3" d="M 33.5,121.5 C 34.9988,123.453 34.6655,125.12 32.5,126.5C 32.9569,127.298 33.6236,127.631 34.5,127.5C 31.9816,131.616 33.3149,134.449 38.5,136C 38.0563,137.533 37.723,139.033 37.5,140.5C 36.4822,139.807 35.4822,139.141 34.5,138.5C 33.1634,137.685 32.1634,136.518 31.5,135C 29.7818,134.654 28.1151,134.154 26.5,133.5C 25.7132,134.242 25.0465,135.075 24.5,136C 26.0163,137.897 26.683,140.064 26.5,142.5C 23.8896,140.18 21.2229,137.847 18.5,135.5C 16.9539,133.118 16.2872,130.451 16.5,127.5C 18.5695,127.449 20.4029,128.115 22,129.5C 23.7126,128.863 23.8793,127.863 22.5,126.5C 24.0453,125.548 25.712,125.215 27.5,125.5C 27.1192,123.058 27.7859,122.391 29.5,123.5C 30.6223,122.37 31.9557,121.703 33.5,121.5 Z"/></g>
<g><path style="opacity:1" fill="#e8ac44" d="M 162.5,124.5 C 162.785,126.288 162.452,127.955 161.5,129.5C 159.359,131.122 157.692,133.122 156.5,135.5C 154.955,134.77 154.122,133.437 154,131.5C 153.8,133.32 152.966,134.653 151.5,135.5C 151.768,133.901 151.434,132.568 150.5,131.5C 150.443,130.391 150.11,129.391 149.5,128.5C 151.679,127.941 153.846,127.274 156,126.5C 156.772,126.645 157.439,126.978 158,127.5C 158.901,124.929 160.234,122.596 162,120.5C 162.49,121.793 162.657,123.127 162.5,124.5 Z"/></g>
<g><path style="opacity:0.992" fill="#6885c4" d="M 40.5,125.5 C 42.5,126.833 44.1667,128.5 45.5,130.5C 42.2984,130.463 40.6317,128.797 40.5,125.5 Z"/></g>
<g><path style="opacity:1" fill="#7c8275" d="M 75.5,122.5 C 76.397,123.598 77.2303,123.598 78,122.5C 78.4643,123.094 78.631,123.761 78.5,124.5C 74.3553,127.705 72.022,132.038 71.5,137.5C 68.8333,135.5 66.5,133.167 64.5,130.5C 64.5858,129.504 64.2524,128.671 63.5,128C 67.6176,126.043 71.6176,124.209 75.5,122.5 Z"/></g>
<g><path style="opacity:1" fill="#3563d3" d="M 32.5,118.5 C 33.5,119.167 34.5,119.833 35.5,120.5C 35.8333,123.5 37.5,125.167 40.5,125.5C 40.6317,128.797 42.2984,130.463 45.5,130.5C 45.5,131.167 45.5,131.833 45.5,132.5C 43.4727,132.662 41.4727,132.495 39.5,132C 38.3492,129.8 36.6825,128.3 34.5,127.5C 33.6236,127.631 32.9569,127.298 32.5,126.5C 34.6655,125.12 34.9988,123.453 33.5,121.5C 32.8902,120.609 32.5569,119.609 32.5,118.5 Z"/></g>
<g><path style="opacity:0.153" fill="#edd594" d="M 182.5,119.5 C 180.726,126.707 176.726,132.373 170.5,136.5C 170.5,135.833 170.5,135.167 170.5,134.5C 174.57,132.046 176.903,128.379 177.5,123.5C 178.675,123.719 179.675,123.386 180.5,122.5C 180.942,121.261 181.609,120.261 182.5,119.5 Z"/></g>
<g><path style="opacity:1" fill="#2e60e1" d="M 34.5,138.5 C 32.9537,138.724 31.287,139.057 29.5,139.5C 31.5823,141.422 32.9156,143.755 33.5,146.5C 31.9743,145.895 30.9743,144.729 30.5,143C 29.2068,142.51 27.8734,142.343 26.5,142.5C 26.683,140.064 26.0163,137.897 24.5,136C 25.0465,135.075 25.7132,134.242 26.5,133.5C 28.1151,134.154 29.7818,134.654 31.5,135C 32.1634,136.518 33.1634,137.685 34.5,138.5 Z"/></g>
<g><path style="opacity:1" fill="#546dba" d="M 45.5,130.5 C 52.5,136.833 59.1667,143.5 65.5,150.5C 64.391,150.443 63.391,150.11 62.5,149.5C 62.1667,149.5 61.8333,149.5 61.5,149.5C 57.1526,143.819 52.1526,138.819 46.5,134.5C 46.6716,133.508 46.3382,132.842 45.5,132.5C 45.5,131.833 45.5,131.167 45.5,130.5 Z"/></g>
<g><path style="opacity:1" fill="#707c73" d="M 78.5,124.5 C 78.9478,127.487 80.4478,128.487 83,127.5C 83.4169,128.756 84.2502,129.423 85.5,129.5C 88.1798,132.013 91.0132,134.346 94,136.5C 95.981,135.35 97.8143,134.016 99.5,132.5C 99.5858,133.496 99.2524,134.329 98.5,135C 99.1667,135.333 99.8333,135.667 100.5,136C 99.244,136.417 98.5774,137.25 98.5,138.5C 98.1667,138.5 97.8333,138.5 97.5,138.5C 97.631,137.761 97.4643,137.094 97,136.5C 94.568,137.069 92.4013,138.069 90.5,139.5C 90.1344,138.305 89.301,137.639 88,137.5C 86.5349,138.33 85.0349,138.496 83.5,138C 84.1667,137.667 84.8333,137.333 85.5,137C 82.738,134.277 79.9047,134.444 77,137.5C 76.6667,137.167 76.3333,136.833 76,136.5C 75.2086,137.745 74.7086,139.078 74.5,140.5C 73.1667,139.833 72.1667,138.833 71.5,137.5C 72.022,132.038 74.3553,127.705 78.5,124.5 Z"/></g>
<g><path style="opacity:1" fill="#64756e" d="M 103.5,128.5 C 106.278,129.968 109.278,130.801 112.5,131C 111.377,132.044 110.044,132.71 108.5,133C 110.81,133.497 113.143,133.663 115.5,133.5C 115.489,135.017 114.823,136.184 113.5,137C 114.252,137.671 114.586,138.504 114.5,139.5C 111.805,142.526 109.138,145.526 106.5,148.5C 105.782,146.863 105.616,145.197 106,143.5C 106.308,144.308 106.808,144.975 107.5,145.5C 108.23,144.066 109.23,142.9 110.5,142C 108.951,140.786 107.785,139.286 107,137.5C 105.372,138.097 103.705,137.763 102,136.5C 101.333,137.833 100.333,138.833 99,139.5C 98.6012,139.272 98.4346,138.938 98.5,138.5C 98.5774,137.25 99.244,136.417 100.5,136C 99.8333,135.667 99.1667,135.333 98.5,135C 99.2524,134.329 99.5858,133.496 99.5,132.5C 100.5,130.833 101.833,129.5 103.5,128.5 Z"/></g>
<g><path style="opacity:1" fill="#ebb24a" d="M 156.5,135.5 C 158.547,136.456 160.713,137.456 163,138.5C 164.715,135.603 167.215,134.269 170.5,134.5C 170.5,135.167 170.5,135.833 170.5,136.5C 165.878,136.455 163.545,138.788 163.5,143.5C 162.448,143.351 161.448,143.517 160.5,144C 157.267,146.767 153.934,149.267 150.5,151.5C 150.678,150.305 151.011,149.138 151.5,148C 151.387,146.72 150.72,145.887 149.5,145.5C 147.474,146.37 146.141,147.87 145.5,150C 144.207,150.49 142.873,150.657 141.5,150.5C 141.104,147.956 141.771,145.789 143.5,144C 143.167,143.667 142.833,143.333 142.5,143C 144.49,141.249 146.823,140.249 149.5,140C 151.037,138.89 151.703,137.39 151.5,135.5C 152.966,134.653 153.8,133.32 154,131.5C 154.122,133.437 154.955,134.77 156.5,135.5 Z"/></g>
<g><path style="opacity:1" fill="#2b5bdf" d="M 34.5,127.5 C 36.6825,128.3 38.3492,129.8 39.5,132C 41.4727,132.495 43.4727,132.662 45.5,132.5C 46.3382,132.842 46.6716,133.508 46.5,134.5C 46.3739,136.2 45.7073,137.7 44.5,139C 45.1667,140.333 45.8333,141.667 46.5,143C 44.563,145.091 42.563,146.924 40.5,148.5C 39.4168,148.539 38.4168,148.873 37.5,149.5C 36.3578,148.174 35.0245,147.174 33.5,146.5C 32.9156,143.755 31.5823,141.422 29.5,139.5C 31.287,139.057 32.9537,138.724 34.5,138.5C 35.4822,139.141 36.4822,139.807 37.5,140.5C 37.723,139.033 38.0563,137.533 38.5,136C 33.3149,134.449 31.9816,131.616 34.5,127.5 Z"/></g>
<g><path style="opacity:1" fill="#dda74c" d="M 157.5,111.5 C 158.167,111.5 158.833,111.5 159.5,111.5C 159.599,114.673 158.932,117.673 157.5,120.5C 155.284,123.61 152.618,126.276 149.5,128.5C 150.11,129.391 150.443,130.391 150.5,131.5C 145.875,135.447 140.875,138.781 135.5,141.5C 133.341,142.785 132.674,144.452 133.5,146.5C 130.426,149.033 127.093,151.033 123.5,152.5C 128.237,147.587 132.903,142.42 137.5,137C 141.311,135.878 143.644,133.378 144.5,129.5C 147.771,127.409 150.937,125.076 154,122.5C 155.674,118.979 156.84,115.313 157.5,111.5 Z"/></g>
<g><path style="opacity:1" fill="#5e706b" d="M 106.5,148.5 C 105.154,150.537 103.82,152.537 102.5,154.5C 100.692,153.082 100.025,151.082 100.5,148.5C 103.166,148.934 104.333,147.934 104,145.5C 103.107,146.711 102.274,146.711 101.5,145.5C 103.162,144.673 104.495,143.507 105.5,142C 102.881,142.083 100.214,142.25 97.5,142.5C 97.5875,139.402 97.0875,139.068 96,141.5C 93.0654,139.918 93.5654,138.918 97.5,138.5C 97.8333,138.5 98.1667,138.5 98.5,138.5C 98.4346,138.938 98.6012,139.272 99,139.5C 100.333,138.833 101.333,137.833 102,136.5C 103.705,137.763 105.372,138.097 107,137.5C 107.785,139.286 108.951,140.786 110.5,142C 109.23,142.9 108.23,144.066 107.5,145.5C 106.808,144.975 106.308,144.308 106,143.5C 105.616,145.197 105.782,146.863 106.5,148.5 Z"/></g>
<g><path style="opacity:0.988" fill="#e4c57f" d="M 170.5,136.5 C 168.5,139.167 166.167,141.5 163.5,143.5C 163.545,138.788 165.878,136.455 170.5,136.5 Z"/></g>
<g><path style="opacity:1" fill="#65746c" d="M 90.5,139.5 C 91.0283,140.847 91.195,142.181 91,143.5C 90.586,143.043 90.086,142.709 89.5,142.5C 88.6667,143.5 87.8333,144.5 87,145.5C 84.8601,144.272 83.1934,142.605 82,140.5C 79.945,143.675 80.7783,146.009 84.5,147.5C 83.5946,148.702 83.5946,150.036 84.5,151.5C 81.1951,147.859 77.8617,144.192 74.5,140.5C 74.7086,139.078 75.2086,137.745 76,136.5C 76.3333,136.833 76.6667,137.167 77,137.5C 79.9047,134.444 82.738,134.277 85.5,137C 84.8333,137.333 84.1667,137.667 83.5,138C 85.0349,138.496 86.5349,138.33 88,137.5C 89.301,137.639 90.1344,138.305 90.5,139.5 Z"/></g>
<g><path style="opacity:1" fill="#eaaa46" d="M 150.5,131.5 C 151.434,132.568 151.768,133.901 151.5,135.5C 151.703,137.39 151.037,138.89 149.5,140C 146.823,140.249 144.49,141.249 142.5,143C 142.833,143.333 143.167,143.667 143.5,144C 141.771,145.789 141.104,147.956 141.5,150.5C 140.791,151.404 139.791,151.737 138.5,151.5C 138.496,147.826 137.496,144.493 135.5,141.5C 140.875,138.781 145.875,135.447 150.5,131.5 Z"/></g>
<g><path style="opacity:0.969" fill="#5b76c1" d="M 16.5,135.5 C 17.1667,135.5 17.8333,135.5 18.5,135.5C 21.2229,137.847 23.8896,140.18 26.5,142.5C 26.5,143.5 26.5,144.5 26.5,145.5C 22.8333,142.5 19.5,139.167 16.5,135.5 Z"/></g>
<g><path style="opacity:1" fill="#2954d3" d="M 46.5,134.5 C 52.1526,138.819 57.1526,143.819 61.5,149.5C 57.8903,148.055 54.3903,146.389 51,144.5C 51.4969,146.198 51.3302,147.865 50.5,149.5C 47.415,149.921 44.415,150.254 41.5,150.5C 41.1667,149.833 40.8333,149.167 40.5,148.5C 42.563,146.924 44.563,145.091 46.5,143C 45.8333,141.667 45.1667,140.333 44.5,139C 45.7073,137.7 46.3739,136.2 46.5,134.5 Z"/></g>
<g><path style="opacity:1" fill="#5670bb" d="M 26.5,145.5 C 27.8333,145.5 29.1667,145.5 30.5,145.5C 31.1667,147.5 31.8333,149.5 32.5,151.5C 30.1667,149.833 28.1667,147.833 26.5,145.5 Z"/></g>
<g><path style="opacity:1" fill="#5d6d68" d="M 97.5,138.5 C 93.5654,138.918 93.0654,139.918 96,141.5C 97.0875,139.068 97.5875,139.402 97.5,142.5C 96.469,143.249 95.3024,143.915 94,144.5C 93.6667,144.167 93.3333,143.833 93,143.5C 91.1805,145.132 90.0138,147.132 89.5,149.5C 88.5041,149.414 87.6708,149.748 87,150.5C 86.6232,149.058 85.7899,148.058 84.5,147.5C 80.7783,146.009 79.945,143.675 82,140.5C 83.1934,142.605 84.8601,144.272 87,145.5C 87.8333,144.5 88.6667,143.5 89.5,142.5C 90.086,142.709 90.586,143.043 91,143.5C 91.195,142.181 91.0283,140.847 90.5,139.5C 92.4013,138.069 94.568,137.069 97,136.5C 97.4643,137.094 97.631,137.761 97.5,138.5 Z"/></g>
<g><path style="opacity:1" fill="#5d6f6c" d="M 102.5,154.5 C 102.827,164.015 102.494,173.348 101.5,182.5C 101.5,177.5 101.5,172.5 101.5,167.5C 101.665,163.818 101.499,160.152 101,156.5C 99.9484,159.5 98.115,161.833 95.5,163.5C 94.9348,161.456 93.9348,159.79 92.5,158.5C 92.0825,157.778 91.4158,157.278 90.5,157C 90.8333,156.667 91.1667,156.333 91.5,156C 90.8828,153.723 90.2161,151.556 89.5,149.5C 90.0138,147.132 91.1805,145.132 93,143.5C 93.3333,143.833 93.6667,144.167 94,144.5C 95.3024,143.915 96.469,143.249 97.5,142.5C 100.214,142.25 102.881,142.083 105.5,142C 104.495,143.507 103.162,144.673 101.5,145.5C 102.274,146.711 103.107,146.711 104,145.5C 104.333,147.934 103.166,148.934 100.5,148.5C 100.025,151.082 100.692,153.082 102.5,154.5 Z"/></g>
<g><path style="opacity:1" fill="#2b54cf" d="M 26.5,142.5 C 27.8734,142.343 29.2068,142.51 30.5,143C 30.9743,144.729 31.9743,145.895 33.5,146.5C 35.0245,147.174 36.3578,148.174 37.5,149.5C 38.4168,148.873 39.4168,148.539 40.5,148.5C 40.8333,149.167 41.1667,149.833 41.5,150.5C 40.5896,152.501 41.4229,153.835 44,154.5C 44.8466,156.193 45.6799,157.86 46.5,159.5C 44.1012,157.634 41.4345,156.301 38.5,155.5C 37.267,153.204 35.267,151.87 32.5,151.5C 31.8333,149.5 31.1667,147.5 30.5,145.5C 29.1667,145.5 27.8333,145.5 26.5,145.5C 26.5,144.5 26.5,143.5 26.5,142.5 Z"/></g>
<g><path style="opacity:1" fill="#244dd1" d="M 61.5,149.5 C 60.1302,150.925 59.1302,153.259 58.5,156.5C 57.914,156.291 57.414,155.957 57,155.5C 56.0496,160.065 53.2163,162.398 48.5,162.5C 47.8333,161.5 47.1667,160.5 46.5,159.5C 45.6799,157.86 44.8466,156.193 44,154.5C 41.4229,153.835 40.5896,152.501 41.5,150.5C 44.415,150.254 47.415,149.921 50.5,149.5C 51.3302,147.865 51.4969,146.198 51,144.5C 54.3903,146.389 57.8903,148.055 61.5,149.5 Z"/></g>
<g><path style="opacity:1" fill="#dab677" d="M 144.5,129.5 C 143.644,133.378 141.311,135.878 137.5,137C 132.903,142.42 128.237,147.587 123.5,152.5C 123.167,152.5 122.833,152.5 122.5,152.5C 121.833,152.5 121.167,152.5 120.5,152.5C 127.867,144.132 135.867,136.465 144.5,129.5 Z"/></g>
<g><path style="opacity:1" fill="#e4be6b" d="M 163.5,143.5 C 160.138,147.192 156.805,150.859 153.5,154.5C 151.246,155.415 149.246,156.748 147.5,158.5C 147.552,155.654 148.552,153.32 150.5,151.5C 153.934,149.267 157.267,146.767 160.5,144C 161.448,143.517 162.448,143.351 163.5,143.5 Z"/></g>
<g><path style="opacity:1" fill="#ecae47" d="M 135.5,141.5 C 137.496,144.493 138.496,147.826 138.5,151.5C 139.791,151.737 140.791,151.404 141.5,150.5C 142.873,150.657 144.207,150.49 145.5,150C 146.141,147.87 147.474,146.37 149.5,145.5C 150.72,145.887 151.387,146.72 151.5,148C 151.011,149.138 150.678,150.305 150.5,151.5C 148.552,153.32 147.552,155.654 147.5,158.5C 143.522,161.134 139.522,163.801 135.5,166.5C 135.461,165.417 135.127,164.417 134.5,163.5C 135.917,163.141 137.25,161.975 138.5,160C 135.939,160.401 133.272,160.235 130.5,159.5C 132.412,157.178 133.745,154.512 134.5,151.5C 136.18,149.274 135.847,147.607 133.5,146.5C 132.674,144.452 133.341,142.785 135.5,141.5 Z"/></g>
<g><path style="opacity:1" fill="#566564" d="M 84.5,147.5 C 85.7899,148.058 86.6232,149.058 87,150.5C 87.6708,149.748 88.5041,149.414 89.5,149.5C 90.2161,151.556 90.8828,153.723 91.5,156C 91.1667,156.333 90.8333,156.667 90.5,157C 91.4158,157.278 92.0825,157.778 92.5,158.5C 91.4583,159.791 90.2917,159.791 89,158.5C 88.7216,159.416 88.2216,160.082 87.5,160.5C 87.7678,158.901 87.4345,157.568 86.5,156.5C 86.3404,154.847 85.6737,153.514 84.5,152.5C 84.5,152.167 84.5,151.833 84.5,151.5C 83.5946,150.036 83.5946,148.702 84.5,147.5 Z"/></g>
<g><path style="opacity:1" fill="#dbba7a" d="M 120.5,152.5 C 121.167,152.5 121.833,152.5 122.5,152.5C 121.602,154.905 120.102,156.905 118,158.5C 117.177,166.677 117.344,174.677 118.5,182.5C 118.821,184.048 119.821,184.715 121.5,184.5C 121.5,184.833 121.5,185.167 121.5,185.5C 120.068,187.647 118.235,187.98 116,186.5C 115.333,177.167 115.333,167.833 116,158.5C 116.792,155.894 118.292,153.894 120.5,152.5 Z"/></g>
<g><path style="opacity:1" fill="#e9a844" d="M 133.5,146.5 C 135.847,147.607 136.18,149.274 134.5,151.5C 133.167,151.5 131.833,151.5 130.5,151.5C 130.95,155.224 129.283,157.391 125.5,158C 124.446,159.388 124.28,160.888 125,162.5C 126.444,160.845 128.278,160.178 130.5,160.5C 130.006,168.741 127.006,170.074 121.5,164.5C 121.643,162.738 121.309,161.071 120.5,159.5C 121.833,157.5 123.5,155.833 125.5,154.5C 124.757,153.818 124.091,153.151 123.5,152.5C 127.093,151.033 130.426,149.033 133.5,146.5 Z"/></g>
<g><path style="opacity:1" fill="#4661ae" d="M 32.5,151.5 C 35.267,151.87 37.267,153.204 38.5,155.5C 39.8062,156.467 40.4729,157.801 40.5,159.5C 37.5,157.167 34.8333,154.5 32.5,151.5 Z"/></g>
<g><path style="opacity:1" fill="#2247ca" d="M 61.5,149.5 C 61.8333,149.5 62.1667,149.5 62.5,149.5C 62.822,151.722 62.1554,153.556 60.5,155C 61.0253,155.692 61.6919,156.192 62.5,156.5C 64.0709,155.691 65.7376,155.357 67.5,155.5C 66.7091,158.535 65.7091,161.535 64.5,164.5C 64.8457,165.849 65.179,167.183 65.5,168.5C 64.0689,168.119 63.2355,167.119 63,165.5C 61.4878,166.257 60.1545,167.257 59,168.5C 58.4646,166.729 57.6313,166.396 56.5,167.5C 57.1925,168.518 57.8592,169.518 58.5,170.5C 54.7929,168.312 51.4595,165.645 48.5,162.5C 53.2163,162.398 56.0496,160.065 57,155.5C 57.414,155.957 57.914,156.291 58.5,156.5C 59.1302,153.259 60.1302,150.925 61.5,149.5 Z"/></g>
<g><path style="opacity:1" fill="#4e6061" d="M 101.5,167.5 C 100.566,168.568 100.232,169.901 100.5,171.5C 100.167,171.5 99.8333,171.5 99.5,171.5C 97.6833,169.99 95.6833,168.657 93.5,167.5C 92.8076,168.025 92.3076,168.692 92,169.5C 91.6667,169.167 91.3333,168.833 91,168.5C 90.2515,170.332 89.2515,171.999 88,173.5C 87.501,169.179 87.3343,164.846 87.5,160.5C 88.2216,160.082 88.7216,159.416 89,158.5C 90.2917,159.791 91.4583,159.791 92.5,158.5C 93.9348,159.79 94.9348,161.456 95.5,163.5C 98.115,161.833 99.9484,159.5 101,156.5C 101.499,160.152 101.665,163.818 101.5,167.5 Z"/></g>
<g><path style="opacity:1" fill="#2545ba" d="M 62.5,149.5 C 63.391,150.11 64.391,150.443 65.5,150.5C 67.1667,151.5 68.5,152.833 69.5,154.5C 70.6996,164.495 70.6996,174.495 69.5,184.5C 68.5832,183.873 67.5832,183.539 66.5,183.5C 65.8333,183.5 65.1667,183.5 64.5,183.5C 63.5,183.167 62.8333,182.5 62.5,181.5C 64.7638,182.219 67.0971,182.552 69.5,182.5C 69.665,179.15 69.4983,175.817 69,172.5C 68.6667,172.833 68.3333,173.167 68,173.5C 67.9504,171.256 67.1171,169.589 65.5,168.5C 65.179,167.183 64.8457,165.849 64.5,164.5C 65.7091,161.535 66.7091,158.535 67.5,155.5C 65.7376,155.357 64.0709,155.691 62.5,156.5C 61.6919,156.192 61.0253,155.692 60.5,155C 62.1554,153.556 62.822,151.722 62.5,149.5 Z"/></g>
<g><path style="opacity:1" fill="#ecab42" d="M 134.5,151.5 C 133.745,154.512 132.412,157.178 130.5,159.5C 133.272,160.235 135.939,160.401 138.5,160C 137.25,161.975 135.917,163.141 134.5,163.5C 135.127,164.417 135.461,165.417 135.5,166.5C 132.236,168.094 129.569,170.427 127.5,173.5C 126.522,173.023 125.689,172.357 125,171.5C 124.667,171.833 124.333,172.167 124,172.5C 123.667,170.833 123.333,169.167 123,167.5C 122.617,168.056 122.117,168.389 121.5,168.5C 121.5,167.167 121.5,165.833 121.5,164.5C 127.006,170.074 130.006,168.741 130.5,160.5C 128.278,160.178 126.444,160.845 125,162.5C 124.28,160.888 124.446,159.388 125.5,158C 129.283,157.391 130.95,155.224 130.5,151.5C 131.833,151.5 133.167,151.5 134.5,151.5 Z"/></g>
<g><path style="opacity:1" fill="#5261ac" d="M 44.5,163.5 C 48.0339,165.021 51.0339,167.354 53.5,170.5C 54.3857,171.325 54.719,172.325 54.5,173.5C 50.8333,170.5 47.5,167.167 44.5,163.5 Z"/></g>
<g><path style="opacity:0.375" fill="#879393" d="M 84.5,152.5 C 85.6737,153.514 86.3404,154.847 86.5,156.5C 86.5,165.167 86.5,173.833 86.5,182.5C 85.7605,172.643 85.0938,162.643 84.5,152.5 Z"/></g>
<g><path style="opacity:1" fill="#2040c1" d="M 65.5,168.5 C 67.1171,169.589 67.9504,171.256 68,173.5C 68.3333,173.167 68.6667,172.833 69,172.5C 69.4983,175.817 69.665,179.15 69.5,182.5C 67.0971,182.552 64.7638,182.219 62.5,181.5C 61.7987,178.784 60.4654,176.45 58.5,174.5C 58.5,173.167 58.5,171.833 58.5,170.5C 57.8592,169.518 57.1925,168.518 56.5,167.5C 57.6313,166.396 58.4646,166.729 59,168.5C 60.1545,167.257 61.4878,166.257 63,165.5C 63.2355,167.119 64.0689,168.119 65.5,168.5 Z"/></g>
<g><path style="opacity:1" fill="#485a5e" d="M 86.5,156.5 C 87.4345,157.568 87.7678,158.901 87.5,160.5C 87.3343,164.846 87.501,169.179 88,173.5C 89.2515,171.999 90.2515,170.332 91,168.5C 91.3333,168.833 91.6667,169.167 92,169.5C 92.3076,168.692 92.8076,168.025 93.5,167.5C 95.6833,168.657 97.6833,169.99 99.5,171.5C 96.0874,172.156 92.9207,173.49 90,175.5C 89.586,175.043 89.086,174.709 88.5,174.5C 87.5481,176.045 87.2148,177.712 87.5,179.5C 88.1495,181.435 88.4828,183.435 88.5,185.5C 87.0937,185.027 86.427,184.027 86.5,182.5C 86.5,173.833 86.5,165.167 86.5,156.5 Z"/></g>
<g><path style="opacity:1" fill="#e4ac4e" d="M 147.5,158.5 C 143.36,163.984 138.36,168.317 132.5,171.5C 132.167,175.167 130.167,177.167 126.5,177.5C 126.031,180.643 124.364,182.977 121.5,184.5C 119.821,184.715 118.821,184.048 118.5,182.5C 118.192,180.076 118.526,177.743 119.5,175.5C 120.478,175.977 121.311,176.643 122,177.5C 122.5,176.333 123.333,175.5 124.5,175C 123.448,173.881 122.281,173.381 121,173.5C 120.36,171.735 120.527,170.068 121.5,168.5C 122.117,168.389 122.617,168.056 123,167.5C 123.333,169.167 123.667,170.833 124,172.5C 124.333,172.167 124.667,171.833 125,171.5C 125.689,172.357 126.522,173.023 127.5,173.5C 129.569,170.427 132.236,168.094 135.5,166.5C 139.522,163.801 143.522,161.134 147.5,158.5 Z"/></g>
<g><path style="opacity:1" fill="#2b48b8" d="M 38.5,155.5 C 41.4345,156.301 44.1012,157.634 46.5,159.5C 47.1667,160.5 47.8333,161.5 48.5,162.5C 51.4595,165.645 54.7929,168.312 58.5,170.5C 58.5,171.833 58.5,173.167 58.5,174.5C 57.1667,174.167 55.8333,173.833 54.5,173.5C 54.719,172.325 54.3857,171.325 53.5,170.5C 51.0339,167.354 48.0339,165.021 44.5,163.5C 42.8333,162.5 41.5,161.167 40.5,159.5C 40.4729,157.801 39.8062,156.467 38.5,155.5 Z"/></g>
<g><path style="opacity:0.816" fill="#f4dda5" d="M 153.5,154.5 C 143.447,165.554 132.781,175.887 121.5,185.5C 121.5,185.167 121.5,184.833 121.5,184.5C 124.364,182.977 126.031,180.643 126.5,177.5C 130.167,177.167 132.167,175.167 132.5,171.5C 138.36,168.317 143.36,163.984 147.5,158.5C 149.246,156.748 151.246,155.415 153.5,154.5 Z"/></g>
<g><path style="opacity:1" fill="#40575a" d="M 99.5,171.5 C 99.8333,171.5 100.167,171.5 100.5,171.5C 100.665,174.518 100.498,177.518 100,180.5C 99.6667,179.833 99.3333,179.167 99,178.5C 97.474,181.431 95.1407,183.431 92,184.5C 90.5836,182.64 89.0836,180.973 87.5,179.5C 87.2148,177.712 87.5481,176.045 88.5,174.5C 89.086,174.709 89.586,175.043 90,175.5C 92.9207,173.49 96.0874,172.156 99.5,171.5 Z"/></g>
<g><path style="opacity:1" fill="#e2a749" d="M 122.5,152.5 C 122.833,152.5 123.167,152.5 123.5,152.5C 124.091,153.151 124.757,153.818 125.5,154.5C 123.5,155.833 121.833,157.5 120.5,159.5C 121.309,161.071 121.643,162.738 121.5,164.5C 121.5,165.833 121.5,167.167 121.5,168.5C 120.527,170.068 120.36,171.735 121,173.5C 122.281,173.381 123.448,173.881 124.5,175C 123.333,175.5 122.5,176.333 122,177.5C 121.311,176.643 120.478,175.977 119.5,175.5C 118.526,177.743 118.192,180.076 118.5,182.5C 117.344,174.677 117.177,166.677 118,158.5C 120.102,156.905 121.602,154.905 122.5,152.5 Z"/></g>
<g><path style="opacity:1" fill="#4a58a7" d="M 54.5,173.5 C 55.8333,173.833 57.1667,174.167 58.5,174.5C 60.4654,176.45 61.7987,178.784 62.5,181.5C 59.5,179.167 56.8333,176.5 54.5,173.5 Z"/></g>
<g><path style="opacity:0.871" fill="#5760ad" d="M 69.5,154.5 C 70.4584,154.953 71.2917,155.619 72,156.5C 72.8246,166.342 72.658,176.009 71.5,185.5C 69.302,185.88 67.6354,185.213 66.5,183.5C 67.5832,183.539 68.5832,183.873 69.5,184.5C 70.6996,174.495 70.6996,164.495 69.5,154.5 Z"/></g>
<g><path style="opacity:1" fill="#47595a" d="M 101.5,167.5 C 101.5,172.5 101.5,177.5 101.5,182.5C 99.8371,187.168 96.5037,189.002 91.5,188C 90.0577,187.623 89.0577,186.79 88.5,185.5C 88.4828,183.435 88.1495,181.435 87.5,179.5C 89.0836,180.973 90.5836,182.64 92,184.5C 95.1407,183.431 97.474,181.431 99,178.5C 99.3333,179.167 99.6667,179.833 100,180.5C 100.498,177.518 100.665,174.518 100.5,171.5C 100.232,169.901 100.566,168.568 101.5,167.5 Z"/></g>
<g><path style="opacity:0.733" fill="#7a86b8" d="M 64.5,183.5 C 65.1667,183.5 65.8333,183.5 66.5,183.5C 67.6354,185.213 69.302,185.88 71.5,185.5C 68.764,187.687 66.4307,187.021 64.5,183.5 Z"/></g>
</svg>
